<?xml version="1.0" encoding="utf-8"?>
<!-- Generator: Adobe Illustrator 16.0.0, SVG Export Plug-In . SVG Version: 6.00 Build 0)  -->
<!DOCTYPE svg PUBLIC "-//W3C//DTD SVG 1.1//EN" "http://www.w3.org/Graphics/SVG/1.1/DTD/svg11.dtd">
<svg version="1.1" id="Layer_1" xmlns="http://www.w3.org/2000/svg" xmlns:xlink="http://www.w3.org/1999/xlink" x="0px" y="0px"
	 width="200px" height="200px" viewBox="0 0 200 200" enable-background="new 0 0 200 200" xml:space="preserve">
<g>
	<g>
		
			<rect x="41.882" y="123.918" transform="matrix(-0.4995 -0.8663 0.8663 -0.4995 -44.6099 223.1221)" fill="#5F5448" width="0.53" height="1.058"/>
		
			<rect x="58.108" y="68.252" transform="matrix(-0.866 -0.5 0.5 -0.866 75.1635 157.1719)" fill="#5F5448" width="1.058" height="0.529"/>
		
			<rect x="40.05" y="124.975" transform="matrix(-0.4988 -0.8667 0.8667 -0.4988 -48.35 223.0489)" fill="#5F5448" width="0.53" height="1.058"/>
		
			<rect x="43.452" y="59.79" transform="matrix(-0.8657 -0.5006 0.5006 -0.8657 51.9929 134.0585)" fill="#5F5448" width="1.056" height="0.529"/>
		
			<rect x="41.618" y="58.732" transform="matrix(-0.8656 -0.5007 0.5007 -0.8656 49.0946 131.1674)" fill="#5F5448" width="1.058" height="0.529"/>
		
			<rect x="37.954" y="56.617" transform="matrix(-0.866 -0.5 0.5 -0.866 43.373 125.3829)" fill="#5F5448" width="1.058" height="0.529"/>
		
			<rect x="43.715" y="122.859" transform="matrix(-0.5011 -0.8654 0.8654 -0.5011 -40.7605 223.2771)" fill="#5F5448" width="0.528" height="1.058"/>
		
			<rect x="69.101" y="74.599" transform="matrix(0.8653 0.5012 -0.5012 0.8653 46.8984 -24.8167)" fill="#5F5448" width="1.058" height="0.529"/>
		
			<rect x="67.269" y="73.541" transform="matrix(0.866 0.5 -0.5 0.866 45.9816 -24.0099)" fill="#5F5448" width="1.058" height="0.529"/>
		
			<rect x="38.22" y="126.035" transform="matrix(-0.502 -0.8649 0.8649 -0.502 -51.6563 223.3836)" fill="#5F5448" width="0.526" height="1.057"/>
		
			<rect x="36.121" y="55.559" transform="matrix(-0.8664 -0.4994 0.4994 -0.8664 40.5278 122.4904)" fill="#5F5448" width="1.059" height="0.529"/>
		
			<rect x="36.385" y="127.09" transform="matrix(-0.4995 -0.8663 0.8663 -0.4995 -55.6006 223.1162)" fill="#5F5448" width="0.53" height="1.058"/>
		
			<rect x="45.546" y="121.802" transform="matrix(-0.4988 -0.8667 0.8667 -0.4988 -37.3632 223.0565)" fill="#5F5448" width="0.53" height="1.059"/>
		
			<rect x="54.707" y="116.514" transform="matrix(-0.5009 -0.8655 0.8655 -0.5009 -18.7942 223.2461)" fill="#5F5448" width="0.53" height="1.056"/>
		
			<rect x="54.443" y="66.136" transform="matrix(-0.866 -0.5 0.5 -0.866 69.3824 151.3906)" fill="#5F5448" width="1.058" height="0.529"/>
		
			<rect x="52.611" y="65.079" transform="matrix(-0.866 -0.5 0.5 -0.866 66.4925 148.5011)" fill="#5F5448" width="1.058" height="0.529"/>
		
			<rect x="58.373" y="114.399" transform="matrix(-0.5004 -0.8658 0.8658 -0.5004 -11.522 223.205)" fill="#5F5448" width="0.528" height="1.056"/>
		
			<rect x="45.284" y="60.848" transform="matrix(-0.8659 -0.5002 0.5002 -0.8659 54.9166 136.9445)" fill="#5F5448" width="1.057" height="0.529"/>
		
			<rect x="52.875" y="117.571" transform="matrix(-0.4988 -0.8667 0.8667 -0.4988 -22.7108 223.0665)" fill="#5F5448" width="0.53" height="1.058"/>
		
			<rect x="56.274" y="67.194" transform="matrix(-0.866 -0.5001 0.5001 -0.866 72.2632 154.2828)" fill="#5F5448" width="1.059" height="0.529"/>
		
			<rect x="56.539" y="115.455" transform="matrix(-0.5009 -0.8655 0.8655 -0.5009 -15.1287 223.2445)" fill="#5F5448" width="0.53" height="1.058"/>
		
			<rect x="47.115" y="61.905" transform="matrix(-0.8662 -0.4996 0.4996 -0.8662 57.8547 139.8272)" fill="#5F5448" width="1.057" height="0.529"/>
		
			<rect x="47.38" y="120.743" transform="matrix(-0.5004 -0.8658 0.8658 -0.5004 -33.5107 223.2083)" fill="#5F5448" width="0.528" height="1.059"/>
		
			<rect x="49.212" y="119.687" transform="matrix(-0.5011 -0.8654 0.8654 -0.5011 -29.7642 223.2727)" fill="#5F5448" width="0.528" height="1.058"/>
		
			<rect x="50.779" y="64.02" transform="matrix(-0.8662 -0.4996 0.4996 -0.8662 63.6353 145.6062)" fill="#5F5448" width="1.057" height="0.53"/>
		
			<rect x="48.947" y="62.963" transform="matrix(-0.8654 -0.501 0.501 -0.8654 60.6176 142.735)" fill="#5F5448" width="1.058" height="0.529"/>
		
			<rect x="51.043" y="118.629" transform="matrix(-0.4988 -0.8667 0.8667 -0.4988 -26.3733 223.0638)" fill="#5F5448" width="0.53" height="1.057"/>
		
			<rect x="39.787" y="57.674" transform="matrix(-0.8659 -0.5002 0.5002 -0.8659 46.2469 128.2729)" fill="#5F5448" width="1.057" height="0.529"/>
		
			<rect x="127.994" y="74.201" transform="matrix(0.5003 0.8658 -0.8658 0.5003 128.7948 -73.7099)" fill="#5F5448" width="0.529" height="1.058"/>
		
			<rect x="129.826" y="73.144" transform="matrix(0.4983 0.867 -0.867 0.4983 129.1351 -75.8269)" fill="#5F5448" width="0.527" height="1.058"/>
		<rect x="98.564" y="21.511" fill="#5F5448" width="0.529" height="1.058"/>
		<rect x="98.564" y="23.626" fill="#5F5448" width="0.529" height="1.059"/>
		
			<rect x="131.658" y="72.086" transform="matrix(0.5017 0.865 -0.865 0.5017 128.5538 -77.9348)" fill="#5F5448" width="0.529" height="1.058"/>
		<rect x="98.564" y="19.395" fill="#5F5448" width="0.529" height="1.059"/>
		
			<rect x="135.322" y="69.97" transform="matrix(0.4989 0.8666 -0.8666 0.4989 129.0368 -82.1802)" fill="#5F5448" width="0.528" height="1.059"/>
		
			<rect x="146.316" y="63.625" transform="matrix(0.5003 0.8658 -0.8658 0.5003 128.7914 -94.8593)" fill="#5F5448" width="0.529" height="1.057"/>
		
			<rect x="149.979" y="61.508" transform="matrix(0.5003 0.8658 -0.8658 0.5003 128.7904 -99.0885)" fill="#5F5448" width="0.529" height="1.058"/>
		
			<rect x="160.858" y="55.361" transform="matrix(0.5003 0.8658 -0.8658 0.5003 128.7885 -111.6458)" fill="#5F5448" width="0.529" height="0.793"/>
		<rect x="98.564" y="25.742" fill="#5F5448" width="0.529" height="1.058"/>
		
			<rect x="138.987" y="67.855" transform="matrix(0.5017 0.865 -0.865 0.5017 128.546 -86.3831)" fill="#5F5448" width="0.529" height="1.058"/>
		
			<rect x="142.65" y="65.739" transform="matrix(0.5003 0.8658 -0.8658 0.5003 128.7914 -90.6285)" fill="#5F5448" width="0.529" height="1.058"/>
		<rect x="98.564" y="42.667" fill="#5F5448" width="0.529" height="1.058"/>
		<rect x="98.564" y="46.898" fill="#5F5448" width="0.529" height="1.057"/>
		<rect x="98.564" y="44.783" fill="#5F5448" width="0.529" height="1.058"/>
		<rect x="98.564" y="49.014" fill="#5F5448" width="0.529" height="1.058"/>
		<rect x="98.564" y="55.36" fill="#5F5448" width="0.529" height="1.058"/>
		<rect x="98.564" y="51.129" fill="#5F5448" width="0.529" height="1.057"/>
		<rect x="98.564" y="57.476" fill="#5F5448" width="0.529" height="1.058"/>
		<rect x="98.564" y="53.244" fill="#5F5448" width="0.529" height="1.059"/>
		<rect x="98.564" y="40.552" fill="#5F5448" width="0.529" height="1.058"/>
		<rect x="98.564" y="27.857" fill="#5F5448" width="0.529" height="1.059"/>
		<rect x="98.564" y="29.974" fill="#5F5448" width="0.529" height="1.057"/>
		<rect x="98.564" y="34.205" fill="#5F5448" width="0.529" height="1.057"/>
		<rect x="98.564" y="32.088" fill="#5F5448" width="0.529" height="1.059"/>
		<rect x="98.564" y="36.319" fill="#5F5448" width="0.529" height="1.059"/>
		<rect x="98.564" y="38.436" fill="#5F5448" width="0.529" height="1.058"/>
		
			<rect x="153.644" y="59.393" transform="matrix(0.5003 0.8658 -0.8658 0.5003 128.7899 -103.3191)" fill="#5F5448" width="0.529" height="1.058"/>
		
			<rect x="136.89" y="113.735" transform="matrix(-0.8658 -0.5003 0.5003 -0.8658 199.3671 281.4603)" fill="#5F5448" width="1.058" height="0.531"/>
		
			<rect x="140.555" y="115.851" transform="matrix(-0.8666 -0.4989 0.4989 -0.8666 205.4191 287.1374)" fill="#5F5448" width="1.057" height="0.53"/>
		
			<rect x="137.154" y="68.913" transform="matrix(-0.4977 -0.8673 0.8673 -0.4977 145.5866 223.1931)" fill="#5F5448" width="0.53" height="1.058"/>
		
			<rect x="138.723" y="114.793" transform="matrix(-0.8658 -0.5003 0.5003 -0.8658 202.2581 284.3507)" fill="#5F5448" width="1.058" height="0.53"/>
		
			<rect x="140.818" y="66.797" transform="matrix(-0.5017 -0.865 0.865 -0.5017 153.6229 223.1462)" fill="#5F5448" width="0.529" height="1.058"/>
		
			<rect x="144.219" y="117.967" transform="matrix(-0.865 -0.5017 0.5017 -0.865 210.6463 293.1259)" fill="#5F5448" width="1.059" height="0.529"/>
		
			<rect x="142.385" y="116.909" transform="matrix(-0.8663 -0.4995 0.4995 -0.8663 208.194 290.0699)" fill="#5F5448" width="1.06" height="0.529"/>
		
			<rect x="135.057" y="112.679" transform="matrix(-0.8661 -0.4999 0.4999 -0.8661 196.5535 278.542)" fill="#5F5448" width="1.059" height="0.529"/>
		
			<rect x="129.56" y="109.507" transform="matrix(-0.8661 -0.4999 0.4999 -0.8661 187.8826 269.8734)" fill="#5F5448" width="1.059" height="0.527"/>
		
			<rect x="144.484" y="64.681" transform="matrix(-0.4989 -0.8666 0.8666 -0.4989 160.4519 223.1905)" fill="#5F5448" width="0.528" height="1.058"/>
		
			<rect x="127.729" y="108.448" transform="matrix(-0.8658 -0.5003 0.5003 -0.8658 184.9209 267.0085)" fill="#5F5448" width="1.058" height="0.528"/>
		
			<rect x="131.394" y="110.563" transform="matrix(-0.8658 -0.5003 0.5003 -0.8658 190.7002 272.7886)" fill="#5F5448" width="1.058" height="0.529"/>
		
			<rect x="133.49" y="71.029" transform="matrix(-0.5017 -0.865 0.865 -0.5017 138.9579 223.1613)" fill="#5F5448" width="0.529" height="1.058"/>
		
			<rect x="133.227" y="111.623" transform="matrix(-0.8674 -0.4975 0.4975 -0.8674 194.1126 275.4897)" fill="#5F5448" width="1.056" height="0.527"/>
		
			<rect x="147.882" y="120.082" transform="matrix(-0.865 -0.5017 0.5017 -0.865 216.4179 298.9089)" fill="#5F5448" width="1.059" height="0.53"/>
		
			<rect x="157.308" y="57.277" transform="matrix(-0.5003 -0.8658 0.8658 -0.5003 186.357 223.1599)" fill="#5F5448" width="0.529" height="1.058"/>
		
			<rect x="157.044" y="125.374" transform="matrix(-0.8666 -0.4989 0.4989 -0.8666 231.4492 313.1378)" fill="#5F5448" width="1.057" height="0.526"/>
		
			<rect x="155.212" y="124.315" transform="matrix(-0.8658 -0.5003 0.5003 -0.8658 228.2605 310.364)" fill="#5F5448" width="1.058" height="0.528"/>
		
			<rect x="155.476" y="58.334" transform="matrix(-0.4995 -0.8663 0.8663 -0.4995 182.5412 223.1852)" fill="#5F5448" width="0.53" height="1.058"/>
		
			<rect x="160.726" y="127.421" transform="matrix(-0.866 -0.5001 0.5001 -0.866 236.7901 318.8354)" fill="#5F5448" width="0.793" height="0.53"/>
		
			<rect x="146.051" y="119.025" transform="matrix(-0.8648 -0.5021 0.5021 -0.8648 213.4502 296.0504)" fill="#5F5448" width="1.058" height="0.53"/>
		
			<rect x="159.14" y="56.219" transform="matrix(-0.4995 -0.8663 0.8663 -0.4995 189.8675 223.1883)" fill="#5F5448" width="0.53" height="1.058"/>
		
			<rect x="158.876" y="126.431" transform="matrix(-0.8666 -0.4989 0.4989 -0.8666 234.3413 316.026)" fill="#5F5448" width="1.057" height="0.528"/>
		
			<rect x="149.715" y="121.141" transform="matrix(-0.8658 -0.5003 0.5003 -0.8658 219.5912 301.6937)" fill="#5F5448" width="1.058" height="0.53"/>
		
			<rect x="148.148" y="62.567" transform="matrix(-0.5015 -0.8652 0.8652 -0.5015 168.2544 223.137)" fill="#5F5448" width="0.528" height="1.057"/>
		
			<rect x="151.546" y="122.198" transform="matrix(-0.8661 -0.4999 0.4999 -0.8661 222.5648 304.5493)" fill="#5F5448" width="1.059" height="0.529"/>
		
			<rect x="153.38" y="123.258" transform="matrix(-0.8658 -0.5003 0.5003 -0.8658 225.3708 307.4759)" fill="#5F5448" width="1.058" height="0.528"/>
		
			<rect x="151.811" y="60.45" transform="matrix(-0.4995 -0.8663 0.8663 -0.4995 175.2121 223.1834)" fill="#5F5448" width="0.53" height="1.058"/>
		
			<rect x="59.94" y="69.309" transform="matrix(-0.8659 -0.5002 0.5002 -0.8659 78.0328 160.0646)" fill="#5F5448" width="1.057" height="0.529"/>
		
			<rect x="65.436" y="72.483" transform="matrix(-0.866 -0.5 0.5 -0.866 86.7219 168.7307)" fill="#5F5448" width="1.058" height="0.529"/>
		
			<rect x="67.533" y="109.108" transform="matrix(-0.4995 -0.8663 0.8663 -0.4995 6.6843 223.1352)" fill="#5F5448" width="0.53" height="1.058"/>
		
			<rect x="69.365" y="108.049" transform="matrix(-0.4974 -0.8675 0.8675 -0.4974 10.0727 222.9936)" fill="#5F5448" width="0.529" height="1.06"/>
		<rect x="98.564" y="159.023" fill="#5F5448" width="0.529" height="1.057"/>
		<rect x="98.564" y="161.141" fill="#5F5448" width="0.529" height="1.057"/>
		<rect x="98.564" y="163.256" fill="#5F5448" width="0.529" height="0.791"/>
		
			<rect x="63.603" y="71.425" transform="matrix(-0.8656 -0.5007 0.5007 -0.8656 83.757 165.8559)" fill="#5F5448" width="1.058" height="0.529"/>
		
			<rect x="61.772" y="70.367" transform="matrix(-0.866 -0.5 0.5 -0.866 80.9431 162.9499)" fill="#5F5448" width="1.058" height="0.529"/>
		
			<rect x="62.038" y="112.283" transform="matrix(-0.5027 -0.8645 0.8645 -0.5027 -3.8996 223.3798)" fill="#5F5448" width="0.526" height="1.057"/>
		
			<rect x="60.205" y="113.339" transform="matrix(-0.5004 -0.8658 0.8658 -0.5004 -7.8567 223.2028)" fill="#5F5448" width="0.528" height="1.058"/>
		
			<rect x="65.7" y="110.166" transform="matrix(-0.4988 -0.8667 0.8667 -0.4988 2.9285 223.084)" fill="#5F5448" width="0.53" height="1.058"/>
		
			<rect x="63.869" y="111.224" transform="matrix(-0.5011 -0.8654 0.8654 -0.5011 -0.4392 223.2527)" fill="#5F5448" width="0.528" height="1.058"/>
		<rect x="98.564" y="156.908" fill="#5F5448" width="0.529" height="1.057"/>
		<rect x="98.564" y="150.561" fill="#5F5448" width="0.529" height="1.057"/>
		<rect x="98.564" y="133.637" fill="#5F5448" width="0.529" height="1.057"/>
		<rect x="98.564" y="135.752" fill="#5F5448" width="0.529" height="1.057"/>
		<rect x="98.564" y="137.869" fill="#5F5448" width="0.529" height="1.057"/>
		<rect x="98.564" y="129.406" fill="#5F5448" width="0.529" height="1.057"/>
		<rect x="98.564" y="154.793" fill="#5F5448" width="0.529" height="1.057"/>
		<rect x="98.564" y="127.289" fill="#5F5448" width="0.529" height="1.061"/>
		<rect x="98.564" y="139.984" fill="#5F5448" width="0.529" height="1.057"/>
		<rect x="98.564" y="131.521" fill="#5F5448" width="0.529" height="1.057"/>
		<rect x="98.564" y="125.174" fill="#5F5448" width="0.529" height="1.059"/>
		<rect x="98.564" y="142.098" fill="#5F5448" width="0.529" height="1.061"/>
		<rect x="98.564" y="152.678" fill="#5F5448" width="0.529" height="1.059"/>
		<rect x="98.564" y="148.445" fill="#5F5448" width="0.529" height="1.059"/>
		<rect x="98.564" y="144.215" fill="#5F5448" width="0.529" height="1.059"/>
		<rect x="98.564" y="146.33" fill="#5F5448" width="0.529" height="1.059"/>
	</g>
	<g>
		<path fill="#5F5448" d="M98.828,164.352l-1.047-0.605l0.264-0.457l0.783,0.453l0.096-0.055l0.265,0.459L98.828,164.352z
			 M100.104,163.617l-0.265-0.459l0.916-0.529l0.266,0.457L100.104,163.617z M96.865,163.217l-0.916-0.527l0.263-0.457l0.916,0.529
			L96.865,163.217z M101.937,162.561l-0.265-0.459l0.916-0.529l0.266,0.459L101.937,162.561z M95.032,162.16l-0.916-0.529
			l0.264-0.455l0.916,0.527L95.032,162.16z M103.77,161.5l-0.266-0.457l0.916-0.529l0.266,0.457L103.77,161.5z M93.2,161.104
			l-0.916-0.529l0.264-0.459l0.916,0.531L93.2,161.104z M105.602,160.443l-0.266-0.457l0.916-0.531l0.266,0.459L105.602,160.443z
			 M91.368,160.045l-0.916-0.527l0.265-0.461l0.915,0.531L91.368,160.045z M107.434,159.385l-0.266-0.457l0.917-0.531l0.265,0.459
			L107.434,159.385z M89.536,158.988l-0.917-0.529L88.885,158l0.916,0.529L89.536,158.988z M109.266,158.328l-0.265-0.459
			l0.915-0.527l0.266,0.457L109.266,158.328z M87.704,157.93l-0.916-0.527l0.265-0.459l0.916,0.527L87.704,157.93z M111.098,157.27
			l-0.265-0.459l0.916-0.529l0.265,0.461L111.098,157.27z M85.871,156.873l-0.916-0.531l0.266-0.457l0.916,0.529L85.871,156.873z
			 M112.93,156.213l-0.265-0.459l0.916-0.529l0.264,0.459L112.93,156.213z M84.039,155.813l-0.916-0.527l0.266-0.457l0.916,0.527
			L84.039,155.813z M114.763,155.154l-0.265-0.459l0.916-0.527l0.265,0.457L114.763,155.154z M82.207,154.756l-0.916-0.529
			l0.264-0.457l0.917,0.529L82.207,154.756z M116.593,154.098l-0.263-0.459l0.916-0.529l0.265,0.457L116.593,154.098z
			 M80.375,153.697l-0.916-0.527l0.265-0.457l0.916,0.529L80.375,153.697z M118.426,153.037l-0.264-0.455l0.916-0.529l0.264,0.457
			L118.426,153.037z M78.543,152.641l-0.916-0.529l0.265-0.457l0.916,0.527L78.543,152.641z M120.258,151.98l-0.264-0.459
			l0.916-0.529l0.264,0.459L120.258,151.98z M76.711,151.584l-0.916-0.529l0.264-0.459l0.916,0.527L76.711,151.584z M122.09,150.924
			l-0.264-0.457l0.916-0.531l0.266,0.459L122.09,150.924z M74.878,150.525l-0.916-0.529l0.265-0.459l0.917,0.529L74.878,150.525z
			 M123.923,149.865l-0.265-0.459l0.915-0.529l0.266,0.459L123.923,149.865z M73.046,149.469l-0.916-0.529l0.265-0.459l0.916,0.529
			L73.046,149.469z M125.755,148.809l-0.266-0.459l0.918-0.529l0.264,0.459L125.755,148.809z M71.214,148.408l-0.916-0.529
			l0.264-0.455l0.916,0.527L71.214,148.408z M127.587,147.748l-0.266-0.457l0.916-0.529l0.266,0.461L127.587,147.748z
			 M69.382,147.352l-0.916-0.529l0.264-0.457l0.916,0.529L69.382,147.352z M129.419,146.691l-0.266-0.457l0.916-0.529l0.266,0.457
			L129.419,146.691z M67.55,146.293l-0.916-0.527l0.264-0.461l0.916,0.531L67.55,146.293z M131.251,145.633l-0.266-0.457
			l0.917-0.527l0.265,0.455L131.251,145.633z M65.718,145.236l-0.916-0.529l0.265-0.459l0.916,0.531L65.718,145.236z
			 M133.083,144.576l-0.265-0.457l0.916-0.529l0.265,0.457L133.083,144.576z M63.886,144.178l-0.916-0.527l0.265-0.459l0.916,0.527
			L63.886,144.178z M134.915,143.518l-0.264-0.459l0.915-0.525l0.265,0.457L134.915,143.518z M62.053,143.121l-0.916-0.529
			l0.264-0.459l0.917,0.529L62.053,143.121z M136.747,142.461l-0.265-0.459l0.917-0.529l0.264,0.459L136.747,142.461z
			 M60.221,142.064l-0.916-0.529l0.265-0.459l0.916,0.527L60.221,142.064z M138.58,141.402l-0.265-0.459l0.916-0.527l0.265,0.459
			L138.58,141.402z M58.389,141.006l-0.916-0.531l0.265-0.457l0.916,0.529L58.389,141.006z M140.412,140.346l-0.265-0.459
			l0.916-0.529l0.265,0.457L140.412,140.346z M56.558,139.945l-0.916-0.527l0.264-0.457l0.916,0.529L56.558,139.945z
			 M142.244,139.289l-0.265-0.459l0.916-0.529l0.265,0.459L142.244,139.289z M54.726,138.889l-0.916-0.529l0.264-0.457l0.916,0.529
			L54.726,138.889z M144.076,138.229l-0.265-0.457l0.916-0.529l0.265,0.457L144.076,138.229z M52.892,137.832l-0.915-0.529
			l0.264-0.459l0.916,0.527L52.892,137.832z M145.908,137.172l-0.265-0.457l0.916-0.529l0.265,0.457L145.908,137.172z
			 M51.062,136.773l-0.917-0.529l0.264-0.459l0.916,0.531L51.062,136.773z M147.74,136.113l-0.265-0.457l0.916-0.531l0.266,0.459
			L147.74,136.113z M49.229,135.717l-0.916-0.529l0.264-0.459l0.916,0.529L49.229,135.717z M149.573,135.057l-0.266-0.457
			l0.916-0.531l0.264,0.459L149.573,135.057z M47.396,134.658l-0.916-0.527l0.264-0.459l0.916,0.527L47.396,134.658z
			 M151.403,133.998l-0.264-0.459l0.917-0.529l0.265,0.461L151.403,133.998z M45.564,133.6l-0.916-0.527l0.265-0.459l0.916,0.529
			L45.564,133.6z M153.236,132.941l-0.264-0.459l0.916-0.529l0.264,0.459L153.236,132.941z M43.732,132.541l-0.916-0.527
			l0.265-0.457l0.916,0.527L43.732,132.541z M155.068,131.883l-0.264-0.459l0.916-0.527l0.264,0.459L155.068,131.883z M41.9,131.484
			l-0.916-0.529l0.264-0.457l0.916,0.529L41.9,131.484z M156.9,130.826l-0.264-0.459l0.916-0.529l0.264,0.457L156.9,130.826z
			 M40.069,130.426l-0.916-0.527l0.263-0.457l0.917,0.529L40.069,130.426z M158.733,129.766l-0.264-0.457l0.914-0.527l0.266,0.457
			L158.733,129.766z M38.235,129.369l-0.916-0.529l0.265-0.457l0.917,0.527L38.235,129.369z M160.564,128.709l-0.263-0.457
			l0.914-0.529l0.265,0.457L160.564,128.709z M36.403,128.313l-0.475-0.277v-0.811h0.529v0.506l0.211,0.121L36.403,128.313z
			 M161.729,126.961h-0.527V125.9h0.527V126.961z M36.457,126.164h-0.529v-1.057h0.529V126.164z M161.729,124.844h-0.527v-1.057
			h0.527V124.844z M36.457,124.049h-0.529v-1.057h0.529V124.049z M161.729,122.729h-0.527v-1.057h0.527V122.729z M36.457,121.936
			h-0.529v-1.059h0.529V121.936z M161.729,120.613h-0.527v-1.057h0.527V120.613z M36.457,119.82h-0.529v-1.061h0.529V119.82z
			 M161.729,118.5h-0.527v-1.061h0.527V118.5z M36.457,117.703h-0.529v-1.059h0.529V117.703z M161.729,116.381h-0.527v-1.057h0.527
			V116.381z M36.457,115.588h-0.529v-1.059h0.529V115.588z M161.729,114.268h-0.527v-1.059h0.527V114.268z M36.457,113.473h-0.529
			v-1.059h0.529V113.473z M161.729,112.152h-0.527v-1.059h0.527V112.152z M36.457,111.355h-0.529v-1.059h0.529V111.355z
			 M161.729,110.035h-0.527v-1.059h0.527V110.035z M36.457,109.24h-0.529v-1.057h0.529V109.24z M161.729,107.92h-0.527v-1.059h0.527
			V107.92z M36.457,107.125h-0.529v-1.057h0.529V107.125z M161.729,105.805h-0.527v-1.057h0.527V105.805z M36.457,105.01h-0.529
			v-1.057h0.529V105.01z M161.729,103.689h-0.527v-1.057h0.527V103.689z M36.457,102.893h-0.529v-1.057h0.529V102.893z
			 M161.729,101.572h-0.527v-1.055h0.527V101.572z M36.457,100.778h-0.529V99.72h0.529V100.778z M161.729,99.458h-0.527V98.4h0.527
			V99.458z M36.457,98.663h-0.529v-1.057h0.529V98.663z M161.729,97.342h-0.527v-1.058h0.527V97.342z M36.457,96.545h-0.529v-1.058
			h0.529V96.545z M161.729,95.227h-0.527V94.17h0.527V95.227z M36.457,94.431h-0.529v-1.058h0.529V94.431z M161.729,93.11h-0.527
			v-1.058h0.527V93.11z M36.457,92.316h-0.529v-1.058h0.529V92.316z M161.729,90.996h-0.527v-1.057h0.527V90.996z M36.457,90.2
			h-0.529v-1.058h0.529V90.2z M161.729,88.88h-0.527v-1.058h0.527V88.88z M36.457,88.085h-0.529v-1.059h0.529V88.085z
			 M161.729,86.765h-0.527v-1.058h0.527V86.765z M36.457,85.969h-0.529v-1.058h0.529V85.969z M161.729,84.65h-0.527v-1.059h0.527
			V84.65z M36.457,83.853h-0.529v-1.058h0.529V83.853z M161.729,82.534h-0.527v-1.058h0.527V82.534z M36.457,81.738h-0.529v-1.058
			h0.529V81.738z M161.729,80.417h-0.527V79.36h0.527V80.417z M36.457,79.622h-0.529v-1.058h0.529V79.622z M161.729,78.301h-0.527
			v-1.056h0.527V78.301z M36.457,77.507h-0.529V76.45h0.529V77.507z M161.729,76.187h-0.527v-1.058h0.527V76.187z M36.457,75.391
			h-0.529v-1.057h0.529V75.391z M161.729,74.07h-0.527v-1.056h0.527V74.07z M36.457,73.276h-0.529v-1.058h0.529V73.276z
			 M161.729,71.955h-0.527v-1.057h0.527V71.955z M36.457,71.16h-0.529v-1.058h0.529V71.16z M161.729,69.84h-0.527v-1.059h0.527
			V69.84z M36.457,69.045h-0.529v-1.058h0.529V69.045z M161.729,67.724h-0.527v-1.057h0.527V67.724z M36.457,66.929h-0.529v-1.058
			h0.529V66.929z M161.729,65.608h-0.527v-1.057h0.527V65.608z M36.457,64.814h-0.529v-1.059h0.529V64.814z M161.729,63.493h-0.527
			v-1.058h0.527V63.493z M36.457,62.699h-0.529V61.64h0.529V62.699z M161.729,61.377h-0.527v-1.058h0.527V61.377z M36.457,60.583
			h-0.529v-1.059h0.529V60.583z M161.729,59.262h-0.527v-1.058h0.527V59.262z M36.457,58.466h-0.529v-1.057h0.529V58.466z
			 M161.729,57.146h-0.527v-1.058h0.527V57.146z M36.457,56.35h-0.529v-0.944l0.362-0.208l0.265,0.458l-0.098,0.056V56.35z
			 M160.876,55.524l-0.916-0.529l0.265-0.458l0.916,0.529L160.876,55.524z M37.471,55.126l-0.265-0.458l0.916-0.529l0.264,0.458
			L37.471,55.126z M159.044,54.465l-0.916-0.528l0.265-0.458l0.916,0.528L159.044,54.465z M39.303,54.068l-0.264-0.458l0.916-0.527
			l0.264,0.457L39.303,54.068z M157.212,53.409l-0.916-0.53l0.265-0.458l0.916,0.53L157.212,53.409z M41.135,53.01l-0.264-0.458
			l0.916-0.529l0.264,0.458L41.135,53.01z M155.379,52.35l-0.915-0.529l0.264-0.458l0.916,0.529L155.379,52.35z M42.967,51.953
			l-0.264-0.458l0.916-0.53l0.265,0.459L42.967,51.953z M153.547,51.292l-0.916-0.529l0.265-0.458l0.916,0.528L153.547,51.292z
			 M44.799,50.894l-0.265-0.458l0.916-0.528l0.265,0.458L44.799,50.894z M151.715,50.235l-0.916-0.529l0.265-0.459l0.916,0.529
			L151.715,50.235z M46.631,49.837l-0.265-0.458l0.917-0.529l0.263,0.458L46.631,49.837z M149.883,49.176l-0.916-0.528l0.265-0.458
			l0.915,0.528L149.883,49.176z M48.464,48.779l-0.265-0.458l0.916-0.529l0.265,0.458L48.464,48.779z M148.051,48.119l-0.917-0.529
			l0.265-0.458l0.916,0.529L148.051,48.119z M50.296,47.722l-0.265-0.458l0.916-0.53l0.265,0.459L50.296,47.722z M146.218,47.062
			l-0.916-0.529l0.265-0.458l0.916,0.528L146.218,47.062z M52.128,46.665l-0.265-0.458l0.916-0.53l0.264,0.458L52.128,46.665z
			 M144.386,46.003l-0.916-0.529l0.265-0.458l0.916,0.529L144.386,46.003z M53.959,45.605l-0.264-0.458l0.916-0.529l0.264,0.458
			L53.959,45.605z M142.555,44.945l-0.916-0.529l0.264-0.458l0.916,0.529L142.555,44.945z M55.792,44.548l-0.264-0.458l0.917-0.529
			l0.265,0.458L55.792,44.548z M140.723,43.888l-0.916-0.528l0.264-0.458l0.916,0.529L140.723,43.888z M57.625,43.491l-0.265-0.458
			l0.916-0.53l0.264,0.458L57.625,43.491z M138.891,42.831l-0.916-0.529l0.264-0.458l0.916,0.529L138.891,42.831z M59.457,42.432
			l-0.264-0.458l0.916-0.529l0.264,0.458L59.457,42.432z M137.058,41.772l-0.915-0.529l0.265-0.458l0.916,0.529L137.058,41.772z
			 M61.289,41.375l-0.264-0.458l0.916-0.529l0.264,0.458L61.289,41.375z M135.227,40.714l-0.916-0.529l0.263-0.458l0.918,0.529
			L135.227,40.714z M63.121,40.317l-0.264-0.458l0.916-0.529l0.265,0.458L63.121,40.317z M133.395,39.657l-0.916-0.529l0.264-0.459
			l0.917,0.53L133.395,39.657z M64.953,39.26L64.688,38.8l0.916-0.528l0.265,0.458L64.953,39.26z M131.562,38.598l-0.916-0.529
			l0.265-0.458l0.916,0.529L131.562,38.598z M66.785,38.201l-0.265-0.458l0.917-0.529l0.263,0.458L66.785,38.201z M129.729,37.541
			l-0.916-0.529l0.265-0.458l0.916,0.528L129.729,37.541z M68.616,37.144l-0.263-0.458l0.915-0.529l0.264,0.458L68.616,37.144z
			 M127.897,36.483l-0.916-0.529l0.265-0.458l0.916,0.529L127.897,36.483z M70.45,36.086l-0.265-0.458l0.916-0.529l0.265,0.458
			L70.45,36.086z M126.064,35.426l-0.916-0.529l0.266-0.458l0.916,0.529L126.064,35.426z M72.282,35.027l-0.265-0.458l0.916-0.527
			l0.264,0.457L72.282,35.027z M124.232,34.368l-0.916-0.53l0.266-0.458l0.915,0.529L124.232,34.368z M74.113,33.97l-0.264-0.458
			l0.916-0.528l0.264,0.458L74.113,33.97z M122.4,33.31l-0.916-0.527l0.266-0.459l0.916,0.529L122.4,33.31z M75.945,32.913
			l-0.264-0.458l0.916-0.529l0.264,0.458L75.945,32.913z M120.568,32.252l-0.916-0.528l0.265-0.458l0.917,0.528L120.568,32.252z
			 M77.777,31.855l-0.263-0.458l0.916-0.53l0.263,0.458L77.777,31.855z M118.736,31.193l-0.916-0.527l0.266-0.459l0.915,0.529
			L118.736,31.193z M79.609,30.796l-0.265-0.458l0.916-0.529l0.265,0.458L79.609,30.796z M116.904,30.137l-0.917-0.53l0.266-0.458
			l0.916,0.529L116.904,30.137z M81.442,29.739l-0.266-0.458l0.917-0.529l0.264,0.458L81.442,29.739z M115.071,29.079l-0.916-0.529
			l0.266-0.458l0.916,0.529L115.071,29.079z M83.274,28.681l-0.265-0.458l0.916-0.53l0.265,0.459L83.274,28.681z M113.239,28.021
			l-0.916-0.529l0.265-0.458l0.917,0.529L113.239,28.021z M85.106,27.624l-0.265-0.458l0.915-0.53l0.266,0.458L85.106,27.624z
			 M111.407,26.963l-0.916-0.53l0.265-0.458l0.916,0.529L111.407,26.963z M86.938,26.565l-0.265-0.458l0.916-0.529l0.265,0.458
			L86.938,26.565z M109.575,25.906l-0.916-0.53l0.265-0.458l0.916,0.53L109.575,25.906z M88.771,25.508l-0.264-0.458l0.916-0.529
			l0.264,0.458L88.771,25.508z M107.744,24.848l-0.916-0.529l0.264-0.458l0.916,0.529L107.744,24.848z M90.603,24.45l-0.264-0.458
			l0.916-0.529l0.264,0.458L90.603,24.45z M105.912,23.79l-0.918-0.529l0.266-0.458l0.916,0.529L105.912,23.79z M92.434,23.393
			l-0.263-0.459l0.916-0.529l0.265,0.459L92.434,23.393z M104.078,22.731l-0.914-0.529l0.263-0.458l0.916,0.529L104.078,22.731z
			 M94.268,22.334l-0.265-0.458l0.916-0.529l0.265,0.458L94.268,22.334z M102.247,21.674l-0.916-0.529l0.264-0.458l0.918,0.529
			L102.247,21.674z M96.1,21.277l-0.265-0.458l0.916-0.529l0.265,0.458L96.1,21.277z M100.415,20.616l-0.916-0.529l0.264-0.458
			l0.916,0.528L100.415,20.616z M97.931,20.219l-0.264-0.459l0.916-0.527l0.264,0.458L97.931,20.219z"/>
	</g>
</g>
<g>
	<path fill="#FCFCF9" d="M36.192,108.26c-10.465,0-18.979,8.514-18.979,18.982c0,10.465,8.514,18.977,18.979,18.977
		s18.981-8.512,18.981-18.977C55.173,116.773,46.658,108.26,36.192,108.26z"/>
	<g>
		<g>
			<g>
				<path fill-rule="evenodd" clip-rule="evenodd" fill="#5F5448" d="M29.048,133.162c-1.881,1.221-2.661,3.848-3.766,6.957
					c3.094,2.16,6.857,3.426,10.917,3.426c4.052,0,7.811-1.26,10.902-3.412c-1.102-3.125-1.868-5.777-3.773-6.971
					c-3.26-2.043-5.223-2.529-7.146-2.557C34.214,130.578,32.287,131.059,29.048,133.162z"/>
				<g>
					<path fill-rule="evenodd" clip-rule="evenodd" fill="#FCFCF9" d="M36.08,132.396c-0.964,0-2.09-0.418-2.09-1.592v-7.313h4.4
						v7.313C38.39,131.838,37.2,132.396,36.08,132.396z"/>
					<path fill="#5F5448" d="M37.89,123.992v6.813c0,0.752-1.059,1.092-1.81,1.092c-0.266,0-1.59-0.053-1.59-1.092v-6.813H37.89
						 M38.89,122.992h-5.4v7.813c0,1.43,1.278,2.092,2.59,2.092c1.386,0,2.81-0.738,2.81-2.092V122.992L38.89,122.992z"/>
				</g>
				<g>
					<path fill="#FCFCF9" d="M36.189,128.316c-2.928,0-5.291-3.043-6.112-6.047l-0.115-0.422l-0.433,0.057
						c-0.046-0.031-0.382-0.395-0.559-1.193c-0.14-0.627-0.074-1.082,0-1.266l0.674,0.594l0.139-0.92
						c0.193-1.834,1.281-4.91,6.405-4.91c5.126,0,6.214,3.08,6.406,4.918l0.102,0.975l0.729-0.654c0.018,0,0.165,0.471-0.011,1.264
						c-0.177,0.799-0.514,1.162-0.61,1.197l-0.44-0.066l-0.064,0.428C41.481,125.273,39.117,128.316,36.189,128.316z"/>
					<path fill="#5F5448" d="M36.189,114.709c4.497,0,5.695,2.43,5.909,4.471l0.224,1.842l0.628-0.525
						c-0.006,0.035-0.014,0.07-0.021,0.107c-0.08,0.357-0.202,0.617-0.294,0.764l-0.58-0.088l-0.235,0.857
						c-0.752,2.754-2.981,5.68-5.63,5.68c-2.649,0-4.877-2.926-5.629-5.68l-0.23-0.842l-0.575,0.076
						c-0.092-0.145-0.216-0.406-0.296-0.77c-0.005-0.021-0.009-0.041-0.014-0.063l0.635,0.559l0.202-1.926
						C30.495,117.137,31.693,114.709,36.189,114.709 M36.189,113.709c-4.596,0-6.596,2.439-6.902,5.359
						c-0.123-0.109-0.249-0.17-0.369-0.17c-0.023,0-0.047,0.002-0.07,0.008c-0.417,0.094-0.581,0.951-0.366,1.914
						c0.202,0.908,0.666,1.584,1.067,1.584c0.015,0,0.031-0.002,0.046-0.004c0.918,3.361,3.537,6.416,6.594,6.416
						c3.058,0,5.677-3.055,6.595-6.416c0.017,0.004,0.035,0.004,0.052,0.004c0.401,0,0.865-0.676,1.067-1.584
						c0.213-0.963,0.05-1.82-0.365-1.914c-0.023-0.006-0.046-0.008-0.07-0.008c-0.123,0-0.252,0.064-0.377,0.176
						C42.787,116.154,40.789,113.709,36.189,113.709L36.189,113.709z"/>
				</g>
				<path fill-rule="evenodd" clip-rule="evenodd" fill="#5F5448" d="M39.382,115.225c1.851,0.787,2.604,3.16,3.032,4.762
					c0.622,2.322,0.271,2.121,1.101,0.352s-1.203-9.404-7.134-9.404c-5.932,0-8.517,5.92-7.531,9.082
					c0.745,2.385,0.83,2.447,1.349,0.012C31.532,113.768,36.226,116.508,39.382,115.225z"/>
			</g>
		</g>
		<g>
			<path fill="#0092B2" d="M29.696,119.145c0-1.729,0.735-3.291,1.923-4.424c1.184-1.129,2.82-1.826,4.625-1.826
				c1.806,0,3.44,0.697,4.626,1.826c1.188,1.133,1.922,2.695,1.922,4.424h-0.442c0-1.604-0.681-3.053-1.784-4.104
				c-1.105-1.055-2.633-1.705-4.323-1.705c-1.688,0-3.217,0.65-4.322,1.705c-1.102,1.051-1.785,2.5-1.785,4.104H29.696z"/>
			<g>
				<path fill-rule="evenodd" clip-rule="evenodd" fill="#0092B2" d="M29.829,118.98L29.829,118.98c0.3,0,0.546,0.246,0.546,0.543
					v1.637c0,0.301-0.246,0.547-0.546,0.547l0,0c-0.299,0-0.545-0.246-0.545-0.547v-1.637
					C29.284,119.227,29.53,118.98,29.829,118.98z"/>
				<path fill-rule="evenodd" clip-rule="evenodd" fill="#0092B2" d="M42.66,118.98L42.66,118.98c0.299,0,0.545,0.246,0.545,0.543
					v1.637c0,0.301-0.246,0.547-0.545,0.547l0,0c-0.299,0-0.545-0.246-0.545-0.547v-1.637
					C42.115,119.227,42.361,118.98,42.66,118.98z"/>
			</g>
			<path fill="#0092B2" d="M30.05,121.707c0,0.916,0.556,1.961,1.455,2.752c0.811,0.715,1.894,1.219,3.097,1.238l-0.005,0.439
				c-1.318-0.02-2.502-0.57-3.384-1.348c-0.99-0.877-1.604-2.043-1.604-3.082H30.05z"/>
			<path fill-rule="evenodd" clip-rule="evenodd" fill="#0092B2" d="M34.759,126.523l-1.048-0.342
				c-0.459-0.148-0.34-0.734,0.143-0.715l1.107,0.047C35.754,125.547,35.553,126.74,34.759,126.523z"/>
		</g>
	</g>
</g>
<path fill="#FCFCF9" d="M98.828,145.066c-10.466,0-18.98,8.516-18.98,18.98c0,10.469,8.515,18.98,18.98,18.98
	s18.98-8.512,18.98-18.98C117.809,153.582,109.294,145.066,98.828,145.066z"/>
<g>
	<g>
		<g>
			<g>
				<path fill="none" d="M98.58,162.547c0.099,0.156,0.186,0.318,0.259,0.484c0.063-0.141,0.135-0.283,0.216-0.416
					c-0.103-0.18-0.181-0.361-0.238-0.545C98.755,162.232,98.677,162.391,98.58,162.547z"/>
				<path fill="#5F5448" d="M104.781,164.014c-0.205,0.592-0.635,0.602-0.943,0.307c1.077-0.639,1.503-2.002,1.083-2.645
					c-0.785,1.246-2.055-0.92-0.229-2c-2.021-2.984-5.075-1.527-5.824,0.615c-0.659-2.221-3.806-3.814-5.876-0.764
					c1.827,1.078,0.558,3.246-0.229,2.002c-0.429,0.658,0.027,2.076,1.168,2.691c-0.309,0.393-0.808,0.443-1.035-0.207
					c-1.01,0.969,0.172,4.918,4.414,3.004c0.756-0.342,1.25-0.836,1.529-1.395c0.28,0.559,0.772,1.053,1.528,1.395
					C104.609,168.932,105.791,164.982,104.781,164.014z M99.055,162.615c-0.081,0.133-0.153,0.275-0.216,0.416
					c-0.073-0.166-0.16-0.328-0.259-0.484c0.097-0.156,0.175-0.314,0.236-0.477C98.874,162.254,98.952,162.436,99.055,162.615z"/>
			</g>
			<path fill-rule="evenodd" clip-rule="evenodd" fill="#5F5448" d="M91.686,170.074c-1.883,1.223-2.662,3.85-3.767,6.961
				c3.096,2.156,6.857,3.424,10.917,3.424c4.054,0,7.811-1.262,10.902-3.414c-1.103-3.125-1.869-5.777-3.773-6.971
				c-3.26-2.041-5.223-2.529-7.146-2.557C96.85,167.49,94.923,167.975,91.686,170.074z"/>
			<path fill-rule="evenodd" clip-rule="evenodd" fill="#FCFCF9" d="M98.828,175.031c0-0.99-2.668-4.559-2.668-6.484h5.337
				C101.497,170.473,98.828,174.041,98.828,175.031z"/>
			<g>
				<path fill-rule="evenodd" clip-rule="evenodd" fill="#FCFCF9" d="M98.104,173.541c-1.326-1.424-2.555-1.896-3.32-2.049
					c0.268-0.861,0.713-1.721,1.026-2.061l0.061-0.066c0.153,0.598,0.398,1.186,0.791,1.699
					C97.347,171.963,97.84,172.648,98.104,173.541z M93.476,168.836c0.558-0.654,1.362-1.295,2.146-1.736
					c0.004,0.447,0.022,0.961,0.097,1.492l-0.281,0.002C94.577,168.6,93.967,168.686,93.476,168.836z"/>
				<path fill="#5F5448" d="M95.731,170.479c0.142,0.309,0.316,0.607,0.532,0.889c0.055,0.072,0.107,0.143,0.159,0.211
					c-0.358-0.195-0.692-0.332-0.991-0.43C95.525,170.908,95.629,170.68,95.731,170.479 M96.125,166.299
					c-1.481,0.605-3.616,2.311-3.854,3.752c0.783-0.57,1.352-0.943,3.171-0.957c-0.438,0.477-1.05,1.709-1.288,2.832
					c1.129,0.002,2.978,0.822,4.669,3.336c0-2.127-0.72-3.133-1.764-4.5C96.015,169.396,96.125,167.361,96.125,166.299
					L96.125,166.299z"/>
			</g>
			<g>
				<path fill-rule="evenodd" clip-rule="evenodd" fill="#FCFCF9" d="M99.541,173.543c0.264-0.895,0.757-1.58,1.443-2.479
					c0.393-0.514,0.638-1.102,0.79-1.699l0.062,0.066c0.313,0.34,0.758,1.199,1.025,2.061
					C102.096,171.645,100.867,172.119,99.541,173.543z M104.169,168.836c-0.491-0.15-1.101-0.236-1.961-0.242l-0.282-0.002
					c0.074-0.531,0.093-1.045,0.097-1.492C102.807,167.541,103.611,168.182,104.169,168.836z"/>
				<path fill="#5F5448" d="M101.914,170.479c0.103,0.201,0.205,0.43,0.299,0.67c-0.299,0.098-0.633,0.234-0.99,0.43
					c0.052-0.068,0.104-0.139,0.159-0.209C101.597,171.086,101.771,170.787,101.914,170.479 M101.52,166.299
					c0,1.063,0.11,3.098-0.933,4.463c-1.045,1.367-1.765,2.373-1.765,4.5c1.693-2.514,3.54-3.334,4.669-3.336
					c-0.238-1.123-0.85-2.355-1.287-2.832c1.818,0.014,2.387,0.387,3.17,0.957C105.136,168.609,103.001,166.904,101.52,166.299
					L101.52,166.299z"/>
			</g>
			<g>
				<path fill-rule="evenodd" clip-rule="evenodd" fill="#FCFCF9" d="M98.825,165.016c-2.928,0-5.291-3.041-6.112-6.045
					l-0.115-0.422l-0.434,0.057c-0.044-0.031-0.381-0.396-0.558-1.193c-0.143-0.637-0.076-1.066-0.006-1.25l0.653,0.574l0.166-0.916
					c0.193-1.834,1.281-4.912,6.405-4.912c5.126,0,6.213,3.082,6.404,4.92l0.101,0.969l0.729-0.648c0.021,0,0.167,0.473-0.01,1.264
					c-0.176,0.797-0.511,1.16-0.607,1.195l-0.442-0.07l-0.063,0.43C104.117,161.973,101.755,165.016,98.825,165.016z"/>
				<path fill="#5F5448" d="M98.825,151.408c4.497,0,5.694,2.432,5.907,4.471l0.226,1.816l0.629-0.516
					c-0.008,0.041-0.016,0.082-0.025,0.125c-0.078,0.355-0.199,0.613-0.29,0.758l-0.58-0.092l-0.236,0.865
					c-0.751,2.754-2.979,5.68-5.63,5.68c-2.648,0-4.878-2.926-5.63-5.678l-0.23-0.842l-0.574,0.076
					c-0.092-0.145-0.216-0.406-0.297-0.77c-0.005-0.021-0.009-0.043-0.014-0.064l0.635,0.559l0.202-1.924
					C93.22,152.994,95.318,151.408,98.825,151.408 M98.825,150.408c-4.597,0-6.596,2.443-6.902,5.359
					c-0.121-0.105-0.245-0.166-0.364-0.166c-0.025,0-0.051,0.002-0.076,0.008c-0.416,0.092-0.58,0.949-0.364,1.912
					c0.201,0.904,0.665,1.584,1.066,1.584c0.016,0,0.03-0.002,0.046-0.004c0.919,3.361,3.536,6.414,6.595,6.414
					c3.057,0,5.677-3.053,6.595-6.416c0.018,0.002,0.036,0.004,0.055,0.004c0.4,0,0.863-0.678,1.063-1.582
					c0.215-0.963,0.053-1.82-0.364-1.912c-0.024-0.006-0.049-0.008-0.074-0.008c-0.121,0-0.248,0.063-0.373,0.174
					C105.422,152.854,103.425,150.408,98.825,150.408L98.825,150.408z"/>
			</g>
			<path fill-rule="evenodd" clip-rule="evenodd" fill="#5F5448" d="M98.631,152.225c3.835,0,5.692,2.521,5.816,4.463
				c0.121,1.941,0.799,2.121,1.628,0.352s-1.202-9.404-7.133-9.404c-5.932,0-8.358,5.875-7.531,9.082
				c0.831,3.209,1.858,1.391,1.818,0.012C93.189,155.354,94.382,152.336,98.631,152.225z"/>
			<path fill-rule="evenodd" clip-rule="evenodd" fill="#5F5448" d="M93.979,150.836c-0.37,2.271,3.964,5.494,8.95,5.709
				C103.38,150.65,97.882,148.645,93.979,150.836z"/>
			<path fill-rule="evenodd" clip-rule="evenodd" fill="#FCFCF9" d="M96.125,160.344h5.4v7.811c0,2.637-5.4,2.939-5.4,0V160.344z"/>
		</g>
	</g>
	<g>
		<path fill="#0092B2" d="M92.269,155.967c0-1.727,0.735-3.291,1.923-4.424c1.185-1.129,2.821-1.826,4.626-1.826
			c1.806,0,3.441,0.697,4.626,1.826c1.188,1.133,1.922,2.697,1.922,4.424h-0.441c0-1.602-0.682-3.053-1.783-4.104
			c-1.106-1.053-2.634-1.705-4.323-1.705s-3.217,0.652-4.321,1.705c-1.103,1.051-1.785,2.502-1.785,4.104H92.269z"/>
		<g>
			<path fill-rule="evenodd" clip-rule="evenodd" fill="#0092B2" d="M92.403,155.805L92.403,155.805
				c0.299,0,0.545,0.244,0.545,0.545v1.635c0,0.299-0.246,0.545-0.545,0.545l0,0c-0.301,0-0.546-0.246-0.546-0.545v-1.635
				C91.857,156.049,92.103,155.805,92.403,155.805z"/>
			<path fill-rule="evenodd" clip-rule="evenodd" fill="#0092B2" d="M105.232,155.805L105.232,155.805
				c0.3,0,0.545,0.244,0.545,0.545v1.635c0,0.299-0.245,0.545-0.545,0.545l0,0c-0.3,0-0.545-0.246-0.545-0.545v-1.635
				C104.688,156.049,104.933,155.805,105.232,155.805z"/>
		</g>
		<path fill="#0092B2" d="M92.623,158.529c0,0.918,0.557,1.961,1.454,2.754c0.81,0.715,1.895,1.219,3.098,1.236l-0.005,0.439
			c-1.317-0.02-2.503-0.568-3.384-1.346c-0.991-0.875-1.605-2.045-1.605-3.084H92.623z"/>
		<path fill-rule="evenodd" clip-rule="evenodd" fill="#0092B2" d="M97.332,163.348l-1.048-0.342
			c-0.459-0.148-0.339-0.734,0.143-0.715l1.108,0.045C98.327,162.369,98.126,163.564,97.332,163.348z"/>
	</g>
</g>
<g>
	<path fill="#FCFCF9" d="M161.465,36.632c-10.466,0-18.98,8.516-18.98,18.981s8.515,18.979,18.98,18.979s18.98-8.514,18.98-18.979
		S171.931,36.632,161.465,36.632z"/>
	<g>
		<path fill-rule="evenodd" clip-rule="evenodd" fill="#5F5448" d="M169.524,54.61c-1.398-2.109-0.031-2.379,0.276-4.539
			c0.31-2.16-1.458-5.435-1.458-5.435l-6.147-1.353l-0.774,3.104l-0.774-3.104l-6.147,1.353c0,0-1.768,3.275-1.458,5.435
			c0.309,2.16,1.675,2.43,0.277,4.539c-1.399,2.11-1.66,4.282-0.916,5.875s1.745,4.024,1.258,5.289
			c-0.488,1.265,2.934,2.456,2.934,2.456l4.5-0.905l0.327-4.538l0.329,4.538l4.498,0.905c0,0,3.42-1.191,2.936-2.456
			c-0.488-1.265,0.512-3.695,1.257-5.289S170.923,56.72,169.524,54.61z"/>
		<g>
			<g>
				<g>
					<path fill-rule="evenodd" clip-rule="evenodd" fill="#5F5448" d="M154.321,61.64c-1.881,1.223-2.662,3.849-3.766,6.959
						c3.095,2.159,6.857,3.426,10.917,3.426c4.053,0,7.81-1.262,10.902-3.415c-1.102-3.126-1.869-5.777-3.774-6.97
						c-3.26-2.042-5.223-2.531-7.146-2.557C159.487,59.057,157.56,59.538,154.321,61.64z"/>
					<path fill-rule="evenodd" clip-rule="evenodd" fill="#FCFCF9" d="M161.465,66.597c0-0.99-2.669-4.558-2.669-6.484h5.34
						C164.136,62.04,161.465,65.607,161.465,66.597z"/>
					<g>
						<path fill-rule="evenodd" clip-rule="evenodd" fill="#FCFCF9" d="M160.739,65.106c-1.325-1.422-2.554-1.895-3.319-2.047
							c0.268-0.861,0.713-1.721,1.026-2.063l0.061-0.066c0.152,0.598,0.397,1.188,0.79,1.703
							C159.982,63.53,160.476,64.215,160.739,65.106z M156.114,60.401c0.558-0.653,1.361-1.294,2.146-1.736
							c0.003,0.447,0.022,0.96,0.097,1.491l-0.284,0.002C157.214,60.166,156.605,60.25,156.114,60.401z"/>
						<path fill="#5F5448" d="M158.368,62.045c0.142,0.309,0.316,0.609,0.531,0.891c0.054,0.07,0.105,0.139,0.156,0.206
							c-0.356-0.193-0.689-0.33-0.986-0.426C158.163,62.475,158.266,62.247,158.368,62.045 M158.763,57.863
							c-1.481,0.607-3.617,2.313-3.855,3.756c0.783-0.571,1.351-0.945,3.17-0.961c-0.437,0.478-1.049,1.713-1.287,2.833
							c1.13,0.003,2.977,0.821,4.669,3.335c0-2.126-0.721-3.131-1.765-4.498C158.652,60.962,158.763,58.926,158.763,57.863
							L158.763,57.863z"/>
					</g>
					<g>
						<path fill-rule="evenodd" clip-rule="evenodd" fill="#FCFCF9" d="M162.179,65.106c0.264-0.891,0.757-1.576,1.443-2.474
							c0.392-0.515,0.637-1.104,0.79-1.702l0.059,0.064c0.314,0.343,0.761,1.202,1.027,2.064
							C164.733,63.211,163.505,63.684,162.179,65.106z M166.805,60.401c-0.491-0.15-1.101-0.235-1.96-0.243l-0.282-0.002
							c0.074-0.53,0.094-1.043,0.097-1.491C165.443,59.107,166.247,59.748,166.805,60.401z"/>
						<path fill="#5F5448" d="M164.551,62.046c0.103,0.201,0.205,0.429,0.299,0.669c-0.298,0.097-0.63,0.233-0.986,0.426
							c0.051-0.067,0.103-0.136,0.156-0.206C164.234,62.654,164.409,62.354,164.551,62.046 M164.156,57.863
							c0,1.063,0.11,3.099-0.932,4.466c-1.044,1.366-1.766,2.372-1.766,4.498c1.693-2.514,3.54-3.332,4.67-3.335
							c-0.238-1.121-0.852-2.355-1.289-2.833c1.82,0.016,2.389,0.39,3.17,0.961C167.773,60.177,165.639,58.47,164.156,57.863
							L164.156,57.863z"/>
					</g>
					<g>
						<path fill-rule="evenodd" clip-rule="evenodd" fill="#FCFCF9" d="M161.462,56.583c-2.928,0-5.292-3.042-6.113-6.047
							l-0.115-0.421l-0.434,0.058c-0.044-0.033-0.38-0.396-0.558-1.193c-0.142-0.635-0.075-1.064-0.006-1.25l0.653,0.577
							l0.167-0.918c0.193-1.834,1.281-4.912,6.405-4.912c5.126,0,6.214,3.081,6.406,4.918l0.103,0.983l0.731-0.666
							c0.015,0,0.163,0.472-0.015,1.268c-0.177,0.798-0.514,1.161-0.61,1.197l-0.439-0.066l-0.063,0.427
							C166.754,53.541,164.391,56.583,161.462,56.583z"/>
						<path fill="#5F5448" d="M161.462,42.975c4.497,0,5.695,2.431,5.909,4.47l0.218,1.894l0.627-0.544
							c-0.005,0.025-0.011,0.05-0.017,0.076c-0.079,0.358-0.201,0.618-0.293,0.762l-0.58-0.087l-0.234,0.857
							c-0.752,2.753-2.98,5.679-5.63,5.679s-4.878-2.926-5.631-5.679l-0.23-0.843l-0.574,0.077
							c-0.092-0.144-0.216-0.405-0.296-0.767c-0.005-0.021-0.01-0.042-0.014-0.062l0.635,0.561l0.202-1.93
							C155.856,44.561,157.955,42.975,161.462,42.975 M161.462,41.975c-4.596,0-6.596,2.441-6.902,5.359
							c-0.122-0.108-0.247-0.168-0.366-0.168c-0.025,0-0.05,0.002-0.074,0.008c-0.416,0.092-0.579,0.95-0.365,1.913
							c0.202,0.907,0.666,1.583,1.066,1.583c0.016,0,0.03-0.001,0.046-0.003c0.919,3.361,3.537,6.416,6.596,6.416
							c3.057,0,5.677-3.054,6.595-6.416c0.017,0.002,0.034,0.004,0.052,0.004c0.4,0,0.866-0.676,1.067-1.584
							c0.215-0.963,0.052-1.821-0.365-1.913c-0.024-0.005-0.05-0.008-0.074-0.008c-0.121,0-0.248,0.063-0.371,0.175
							C168.06,44.419,166.062,41.975,161.462,41.975L161.462,41.975z"/>
					</g>
					<path fill-rule="evenodd" clip-rule="evenodd" fill="#5F5448" d="M161.269,43.79c3.835,0,5.691,2.521,5.815,4.462
						c0.122,1.942,0.799,2.125,1.629,0.354c0.828-1.77-1.203-9.404-7.135-9.404c-5.931,0-8.358,5.874-7.529,9.082
						c0.83,3.208,1.857,1.39,1.816,0.013C155.827,46.919,157.019,43.901,161.269,43.79z"/>
					<path fill-rule="evenodd" clip-rule="evenodd" fill="#5F5448" d="M156.616,42.402c-0.238,1.457,1.256,4.506,4.029,4.5
						c2.773-0.005,3.767,2.626,5.683,1.317c-0.918-0.365-0.161-3.309-1.453-4.694C163.006,41.525,158.923,41.106,156.616,42.402z"/>
					<path fill-rule="evenodd" clip-rule="evenodd" fill="#FCFCF9" d="M158.763,51.908h5.398v7.812c0,2.636-5.398,2.939-5.398,0
						V51.908z"/>
				</g>
			</g>
			<g>
				<path fill="#0092B2" d="M154.842,47.511c0-1.728,0.734-3.292,1.922-4.423c1.186-1.129,2.82-1.828,4.626-1.828
					s3.44,0.699,4.627,1.828c1.188,1.131,1.923,2.696,1.923,4.423h-0.443c0-1.604-0.681-3.054-1.783-4.104
					c-1.105-1.054-2.634-1.705-4.323-1.705c-1.688,0-3.216,0.651-4.321,1.705c-1.103,1.05-1.785,2.501-1.785,4.104H154.842z"/>
				<g>
					<path fill-rule="evenodd" clip-rule="evenodd" fill="#0092B2" d="M154.975,47.346L154.975,47.346
						c0.3,0,0.546,0.246,0.546,0.546v1.634c0,0.3-0.246,0.545-0.546,0.545l0,0c-0.299,0-0.545-0.245-0.545-0.545v-1.634
						C154.43,47.591,154.676,47.346,154.975,47.346z"/>
					<path fill-rule="evenodd" clip-rule="evenodd" fill="#0092B2" d="M167.806,47.346L167.806,47.346
						c0.3,0,0.545,0.246,0.545,0.546v1.634c0,0.3-0.245,0.545-0.545,0.545l0,0c-0.3,0-0.546-0.245-0.546-0.545v-1.634
						C167.26,47.591,167.506,47.346,167.806,47.346z"/>
				</g>
				<path fill="#0092B2" d="M155.196,50.071c0,0.917,0.557,1.961,1.454,2.754c0.811,0.715,1.894,1.22,3.098,1.237l-0.007,0.439
					c-1.316-0.019-2.5-0.569-3.382-1.347c-0.991-0.875-1.604-2.044-1.604-3.084H155.196z"/>
				<path fill-rule="evenodd" clip-rule="evenodd" fill="#0092B2" d="M159.904,54.891l-1.049-0.342
					c-0.458-0.149-0.338-0.735,0.144-0.715l1.107,0.046C160.901,53.913,160.698,55.107,159.904,54.891z"/>
			</g>
		</g>
	</g>
</g>
<g>
	<path fill="#FCFCF9" d="M98.828,0.416c-10.466,0-18.98,8.514-18.98,18.979s8.515,18.981,18.98,18.981s18.98-8.516,18.98-18.981
		S109.294,0.416,98.828,0.416z"/>
	<g>
		<g>
			<path fill-rule="evenodd" clip-rule="evenodd" fill="#5F5448" d="M109.738,32.393c-1.103-3.125-1.869-5.776-3.773-6.971
				c-0.147-0.092-0.289-0.177-0.433-0.264c0.001,0,0.001,0,0.001-0.001c-0.026-0.016-0.051-0.03-0.078-0.044
				c-0.102-0.062-0.202-0.122-0.304-0.18c-0.09-0.052-0.179-0.105-0.268-0.156c-0.099-0.056-0.196-0.109-0.293-0.163
				c-0.084-0.047-0.17-0.094-0.252-0.138c-0.096-0.052-0.188-0.099-0.281-0.149c-0.08-0.041-0.16-0.082-0.238-0.122
				c-0.091-0.046-0.179-0.088-0.269-0.132c-0.056-0.026-0.112-0.054-0.166-0.081c-0.001,0-0.001,0.001-0.001,0.001
				c-1.833-0.859-3.21-1.11-4.565-1.128c-1.378-0.019-2.736,0.215-4.539,1.075v-0.001c-0.128,0.062-0.261,0.129-0.395,0.197
				c-0.019,0.009-0.036,0.018-0.055,0.027l0,0c-0.075,0.039-0.153,0.081-0.23,0.122c-0.003,0.001-0.005,0.004-0.009,0.005
				c-0.047,0.025-0.095,0.051-0.142,0.077c-0.129,0.069-0.262,0.144-0.396,0.221c-0.002,0-0.003,0-0.003,0
				c-0.022,0.014-0.047,0.027-0.069,0.041c-0.274,0.158-0.558,0.325-0.853,0.511l0,0c-0.146,0.092-0.292,0.184-0.443,0.282
				c-1.883,1.223-2.662,3.849-3.767,6.959c1.421,0.99,2.981,1.793,4.647,2.373c0.011,0.002,0.021,0.006,0.029,0.009v0.001
				c1.951,0.674,4.047,1.042,6.229,1.042v-0.007c0.003,0.002,0.007,0.005,0.011,0.007c2.229-0.012,4.286-0.351,6.207-1.031
				c0.004-0.001,0.008-0.002,0.013-0.004c0.002-0.001,0.006-0.002,0.009-0.003c0.005-0.001,0.008-0.004,0.014-0.004l-0.002-0.001
				C106.748,34.186,108.313,33.383,109.738,32.393z"/>
			<g>
				<path fill-rule="evenodd" clip-rule="evenodd" fill="#FCFCF9" d="M98.716,25.094c-0.965,0-2.091-0.417-2.091-1.592v-7.311h4.4
					v7.311C101.025,24.536,99.835,25.094,98.716,25.094z"/>
				<path fill="#5F5448" d="M100.525,16.691v6.811c0,0.753-1.059,1.092-1.81,1.092c-0.266,0-1.591-0.053-1.591-1.092v-6.811H100.525
					 M101.525,15.691h-5.4v7.811c0,1.43,1.277,2.092,2.591,2.092c1.385,0,2.81-0.739,2.81-2.092V15.691L101.525,15.691z"/>
			</g>
			<g>
				<path fill-rule="evenodd" clip-rule="evenodd" fill="#FCFCF9" d="M98.825,20.366c-2.928,0-5.291-3.042-6.112-6.047l-0.115-0.42
					l-0.432,0.057c-0.046-0.033-0.383-0.396-0.561-1.194c-0.143-0.636-0.075-1.065-0.006-1.25l0.653,0.581l0.167-0.922
					c0.193-1.834,1.283-4.911,6.405-4.911c5.126,0,6.213,3.08,6.404,4.916l0.101,0.97l0.729-0.648c0.021,0,0.167,0.471-0.01,1.264
					c-0.176,0.798-0.512,1.162-0.608,1.197l-0.44-0.067l-0.063,0.428C104.117,17.323,101.754,20.366,98.825,20.366z"/>
				<path fill="#5F5448" d="M98.825,6.758c4.497,0,5.694,2.43,5.907,4.468l0.226,1.815l0.629-0.515
					c-0.007,0.041-0.016,0.083-0.025,0.127c-0.079,0.356-0.2,0.616-0.292,0.761l-0.579-0.088l-0.235,0.86
					c-0.752,2.753-2.98,5.68-5.63,5.68c-2.648,0-4.878-2.926-5.63-5.679l-0.23-0.841l-0.574,0.075
					c-0.092-0.144-0.217-0.406-0.298-0.77c-0.004-0.019-0.008-0.037-0.012-0.055l0.632,0.562l0.204-1.937
					C93.132,9.186,94.331,6.758,98.825,6.758 M98.825,5.758c-4.597,0-6.595,2.44-6.902,5.358c-0.121-0.107-0.245-0.168-0.364-0.168
					c-0.025,0-0.051,0.002-0.075,0.008c-0.417,0.093-0.581,0.949-0.366,1.913c0.202,0.908,0.667,1.584,1.068,1.584
					c0.015,0,0.03-0.001,0.045-0.003c0.919,3.361,3.536,6.416,6.595,6.416c3.058,0,5.677-3.054,6.595-6.417
					c0.018,0.002,0.035,0.004,0.053,0.004c0.4,0,0.865-0.677,1.065-1.584c0.215-0.963,0.053-1.819-0.364-1.913
					c-0.024-0.005-0.049-0.008-0.074-0.008c-0.121,0-0.248,0.063-0.373,0.174C105.422,8.201,103.425,5.758,98.825,5.758
					L98.825,5.758z"/>
			</g>
			<path fill-rule="evenodd" clip-rule="evenodd" fill="#5F5448" d="M98.706,7.573c1.28,0,1.823-0.567,2.694-0.164
				c1.738,0.807,3.235,3.077,3.65,4.625c0.621,2.324,0.271,2.125,1.101,0.354c0.829-1.77-1.203-9.404-7.134-9.404
				c-5.932,0-8.359,5.873-7.53,9.082s0.829,2.446,1.348,0.012C93.353,9.644,94.456,7.684,98.706,7.573z"/>
			<path fill-rule="evenodd" clip-rule="evenodd" fill="#5F5448" d="M101.883,7.533c-0.842,0.73-3.697,2.375-5.361,2.419
				c0.436-0.395,0.73-0.762,0.876-1.21c0.144-0.447-2.265,1.688-3.237,1.78c0.503-0.598,0.588-0.848,0.611-1.178
				c-1.576,0.863-1.551,2.531-1.548,3.874c0.002,1.343-0.725,0.966-0.626-0.506c0.099-1.473-0.882-3.275-0.39-4.438
				c0.491-1.164,6.981-2.775,9.041-2.775c2.058,0,3.759,2.059,4.251,2.954c0.492,0.895-0.463,3.415-0.436,4.22
				c0.027,0.805-0.626,1.687-0.635-0.022C104.422,10.939,103.434,9.159,101.883,7.533z"/>
		</g>
		<g>
			<path fill="#0092B2" d="M92.269,11.467c0-1.727,0.735-3.292,1.923-4.424c1.185-1.129,2.821-1.827,4.626-1.827
				c1.806,0,3.441,0.697,4.626,1.827c1.188,1.132,1.922,2.697,1.922,4.424h-0.441c0-1.603-0.682-3.053-1.783-4.104
				c-1.106-1.054-2.634-1.705-4.323-1.705s-3.217,0.651-4.321,1.705c-1.103,1.05-1.785,2.501-1.785,4.104H92.269z"/>
			<g>
				<path fill-rule="evenodd" clip-rule="evenodd" fill="#0092B2" d="M92.403,11.303L92.403,11.303c0.299,0,0.545,0.246,0.545,0.546
					v1.635c0,0.299-0.246,0.545-0.545,0.545l0,0c-0.301,0-0.546-0.246-0.546-0.545v-1.635
					C91.857,11.548,92.103,11.303,92.403,11.303z"/>
				<path fill-rule="evenodd" clip-rule="evenodd" fill="#0092B2" d="M105.232,11.303L105.232,11.303c0.3,0,0.545,0.246,0.545,0.546
					v1.635c0,0.299-0.245,0.545-0.545,0.545l0,0c-0.3,0-0.545-0.246-0.545-0.545v-1.635
					C104.688,11.548,104.933,11.303,105.232,11.303z"/>
			</g>
			<path fill="#0092B2" d="M92.623,14.028c0,0.916,0.557,1.961,1.454,2.753c0.81,0.716,1.895,1.221,3.098,1.239l-0.005,0.439
				c-1.317-0.019-2.503-0.569-3.384-1.348c-0.991-0.874-1.605-2.044-1.605-3.083H92.623z"/>
			<path fill-rule="evenodd" clip-rule="evenodd" fill="#0092B2" d="M97.332,18.847l-1.048-0.341
				c-0.459-0.149-0.339-0.735,0.143-0.715l1.108,0.046C98.327,17.869,98.126,19.063,97.332,18.847z"/>
		</g>
	</g>
</g>
<g>
	<path fill="#FCFCF9" d="M161.465,108.26c-10.466,0-18.98,8.514-18.98,18.982c0,10.465,8.515,18.977,18.98,18.977
		s18.98-8.512,18.98-18.977C180.445,116.773,171.931,108.26,161.465,108.26z"/>
	<g>
		<g>
			<path fill-rule="evenodd" clip-rule="evenodd" fill="#5F5448" d="M154.321,132.5c-1.883,1.221-2.662,3.848-3.766,6.959
				c3.095,2.16,6.857,3.426,10.917,3.426c4.053,0,7.81-1.264,10.902-3.416c-1.102-3.125-1.869-5.775-3.774-6.969
				c-3.26-2.041-5.223-2.529-7.146-2.557C159.487,129.916,157.559,130.396,154.321,132.5z"/>
			<g>
				<path fill-rule="evenodd" clip-rule="evenodd" fill="#FCFCF9" d="M161.351,132.172c-0.964,0-2.09-0.416-2.09-1.592v-7.311h4.4
					v7.311C163.661,131.613,162.471,132.172,161.351,132.172z"/>
				<path fill="#5F5448" d="M163.161,123.77v6.811c0,0.754-1.059,1.092-1.811,1.092c-0.266,0-1.59-0.053-1.59-1.092v-6.811H163.161
					 M164.161,122.77h-5.4v7.811c0,1.43,1.277,2.092,2.59,2.092c1.386,0,2.811-0.738,2.811-2.092V122.77L164.161,122.77z"/>
			</g>
			<g>
				<path fill-rule="evenodd" clip-rule="evenodd" fill="#FCFCF9" d="M161.462,127.443c-2.928,0-5.292-3.041-6.113-6.047
					l-0.115-0.422l-0.434,0.057c-0.044-0.031-0.38-0.396-0.559-1.195c-0.141-0.635-0.074-1.064-0.005-1.248l0.651,0.568l0.169-0.91
					c0.193-1.834,1.281-4.912,6.405-4.912c5.127,0,6.214,3.082,6.405,4.92l0.102,0.979l0.73-0.66c0.018,0,0.165,0.473-0.012,1.266
					c-0.177,0.795-0.513,1.16-0.608,1.195l-0.442-0.068l-0.063,0.428C166.753,124.4,164.39,127.443,161.462,127.443z"/>
				<path fill="#5F5448" d="M161.462,113.834c3.509,0,5.607,1.588,5.908,4.471l0.223,1.85l0.628-0.527
					c-0.007,0.033-0.014,0.068-0.021,0.102c-0.079,0.357-0.2,0.615-0.292,0.76l-0.579-0.09l-0.236,0.863
					c-0.753,2.754-2.981,5.682-5.63,5.682s-4.878-2.926-5.631-5.68l-0.23-0.842l-0.573,0.076c-0.093-0.145-0.217-0.406-0.298-0.768
					c-0.006-0.025-0.011-0.049-0.016-0.072l0.639,0.557l0.201-1.916C155.856,115.42,157.955,113.834,161.462,113.834
					 M161.462,112.834c-4.596,0-6.596,2.443-6.902,5.359c-0.122-0.105-0.246-0.168-0.365-0.168c-0.025,0-0.051,0.004-0.075,0.01
					c-0.416,0.09-0.579,0.947-0.366,1.91c0.203,0.906,0.667,1.586,1.067,1.586c0.016,0,0.03-0.002,0.046-0.004
					c0.919,3.361,3.537,6.416,6.596,6.416c3.057,0,5.676-3.055,6.595-6.418c0.018,0.002,0.035,0.004,0.054,0.004
					c0.399,0,0.864-0.678,1.065-1.584c0.215-0.963,0.051-1.82-0.366-1.91c-0.024-0.006-0.049-0.008-0.073-0.008
					c-0.121,0-0.248,0.063-0.372,0.174C168.06,115.279,166.062,112.834,161.462,112.834L161.462,112.834z"/>
			</g>
			<path fill-rule="evenodd" clip-rule="evenodd" fill="#5F5448" d="M167.102,118.766c-0.024-1.254-1.076-2.592-1.838-2.975
				c-0.761-0.383-4.616,0.094-6.606,1.363c-2.152,1.367-2.55,2.408-2.692,3.633c-0.045,0.389-0.15,0.777-0.358,0.701
				c-0.659-0.238-0.873-1.162-1.328-2.609c-0.457-1.449,0.646-7.283,7.192-7.283s7.309,6.648,6.894,7.84
				c-0.3,0.854-0.6,1.896-1.213,1.719C166.873,121.074,167.116,119.49,167.102,118.766z"/>
			<path fill-rule="evenodd" clip-rule="evenodd" fill="#5F5448" d="M155.965,119.566c-0.271,1.082-0.201,3.754,0.87,4.619
				c1.072,0.867,1.681,0.998,1.863,0.006c0.336-1.855,5.182-1.855,5.518,0c0.181,0.992,0.79,0.861,1.862-0.006
				c1.072-0.865,0.881-3.529,1.013-4.646c0.13-1.117,0.838-1.029,0.595-0.223c-0.141,0.463,0.117,1.09,0.213,1.479
				c0.35,1.436,0.09,2.955-0.904,4.67c-2.381,4.113-8.693,4.113-11.075,0c-0.993-1.715-1.255-3.234-0.903-4.67
				c0.096-0.389,0.353-1.016,0.212-1.479C154.985,118.51,155.835,118.449,155.965,119.566z"/>
			<path fill-rule="evenodd" clip-rule="evenodd" fill="#FCFCF9" d="M161.465,123.289c1.357,0,2.46,0.75,2.46,1.674
				c0,0.67,0,1.518-1.014,1.518c-0.996,0-0.706-0.848-1.422-0.838c-0.786,0.014-0.571,0.824-1.545,0.824
				c-0.919,0-0.938-0.846-0.938-1.504C159.006,124.021,160.106,123.289,161.465,123.289z"/>
		</g>
		<g>
			<path fill="#0092B2" d="M154.908,118.713c0-1.729,0.735-3.291,1.923-4.424c1.185-1.129,2.818-1.826,4.625-1.826
				s3.441,0.697,4.625,1.826c1.189,1.133,1.924,2.695,1.924,4.424h-0.441c0-1.604-0.683-3.053-1.785-4.104
				c-1.104-1.055-2.634-1.705-4.322-1.705s-3.216,0.65-4.321,1.705c-1.102,1.051-1.784,2.5-1.784,4.104H154.908z"/>
			<g>
				<path fill-rule="evenodd" clip-rule="evenodd" fill="#0092B2" d="M155.041,118.549L155.041,118.549
					c0.301,0,0.545,0.246,0.545,0.547v1.633c0,0.301-0.244,0.545-0.545,0.545l0,0c-0.3,0-0.545-0.244-0.545-0.545v-1.633
					C154.496,118.795,154.741,118.549,155.041,118.549z"/>
				<path fill-rule="evenodd" clip-rule="evenodd" fill="#0092B2" d="M167.871,118.549L167.871,118.549
					c0.301,0,0.546,0.246,0.546,0.547v1.633c0,0.301-0.245,0.545-0.546,0.545l0,0c-0.299,0-0.545-0.244-0.545-0.545v-1.633
					C167.326,118.795,167.572,118.549,167.871,118.549z"/>
			</g>
			<path fill="#0092B2" d="M155.263,121.273c0,0.916,0.556,1.961,1.453,2.754c0.811,0.715,1.896,1.219,3.099,1.238l-0.006,0.439
				c-1.318-0.02-2.502-0.568-3.385-1.348c-0.99-0.873-1.604-2.043-1.604-3.084H155.263z"/>
			<path fill-rule="evenodd" clip-rule="evenodd" fill="#0092B2" d="M159.97,126.092l-1.047-0.34
				c-0.46-0.15-0.339-0.736,0.144-0.717l1.107,0.047C160.966,125.115,160.765,126.309,159.97,126.092z"/>
		</g>
	</g>
</g>
<g>
	<path fill="#FCFCF9" d="M36.192,36.632c-10.465,0-18.979,8.516-18.979,18.981s8.514,18.979,18.979,18.979s18.98-8.514,18.98-18.979
		S46.658,36.632,36.192,36.632z"/>
	<g>
		<g>
			<path fill-rule="evenodd" clip-rule="evenodd" fill="#5F5448" d="M29.286,43.977c-1.081,1.997-3.253,13.838-0.175,20.659
				c3.077,6.821,10.858,7.051,11.024,3.142C40.301,63.868,31.364,42.397,29.286,43.977z"/>
			<path fill-rule="evenodd" clip-rule="evenodd" fill="#5F5448" d="M42.804,43.971c1.081,1.997,3.098,13.11,0.02,19.932
				c-3.078,6.821-10.753,7.784-10.92,3.875C31.738,63.868,40.724,42.39,42.804,43.971z"/>
			<path fill-rule="evenodd" clip-rule="evenodd" fill="#5F5448" d="M29.048,61.64c-1.881,1.223-2.661,3.849-3.766,6.959
				c3.094,2.159,6.859,3.426,10.917,3.426c4.052,0,7.811-1.262,10.902-3.415c-1.102-3.126-1.868-5.777-3.773-6.97
				c-3.26-2.042-5.223-2.531-7.146-2.557C34.214,59.057,32.287,59.538,29.048,61.64z"/>
			<g>
				<path fill-rule="evenodd" clip-rule="evenodd" fill="#FCFCF9" d="M36.212,64.389c-0.229-0.501-0.516-1.005-0.809-1.522
					c-0.398-0.703-0.81-1.429-1.084-2.168l-0.024-0.066l-0.042-0.057c-0.175-0.236-0.263-0.523-0.263-0.854v-7.312h4.399v7.312
					c0,0.208-0.048,0.405-0.144,0.584c-0.302,0.931-0.77,1.757-1.223,2.557C36.728,63.38,36.441,63.886,36.212,64.389z"/>
				<path fill="#5F5448" d="M37.888,52.908v6.551l0.002,0.108l-0.002,0.018v0.076v0.06c0,0.127-0.028,0.242-0.085,0.35l-0.043,0.081
					l-0.027,0.088c-0.251,0.796-0.706,1.599-1.146,2.376c-0.126,0.222-0.253,0.446-0.375,0.671
					c-0.122-0.224-0.248-0.446-0.373-0.666c-0.388-0.685-0.79-1.394-1.05-2.096l-0.049-0.133l-0.084-0.114
					c-0.111-0.15-0.165-0.332-0.165-0.557v-6.812H37.888 M38.888,51.908h-5.399v7.812c0,0.463,0.134,0.845,0.361,1.152
					c0.74,1.997,2.362,3.773,2.362,5.473c0-1.794,1.802-3.675,2.474-5.806c0.128-0.241,0.202-0.514,0.202-0.819v-0.06
					c0.01-0.067,0.019-0.134,0.025-0.201h-0.025V51.908L38.888,51.908z"/>
			</g>
			<g>
				<path fill-rule="evenodd" clip-rule="evenodd" fill="#FCFCF9" d="M36.189,56.583c-3.57,0-6.446-4.608-6.446-8.423
					c0-1.625,0.5-2.998,1.447-3.969c1.109-1.138,2.791-1.715,4.999-1.715c2.208,0,3.89,0.577,4.999,1.715
					c0.947,0.972,1.447,2.344,1.447,3.969C42.635,51.974,39.76,56.583,36.189,56.583z"/>
				<path fill="#5F5448" d="M36.189,42.975c2.068,0,3.629,0.526,4.641,1.564c1.079,1.107,1.305,2.58,1.305,3.62
					c0,3.566-2.744,7.923-5.946,7.923c-3.293,0-5.946-4.334-5.946-7.923c0-1.041,0.227-2.513,1.305-3.62
					C32.56,43.501,34.121,42.975,36.189,42.975 M36.189,41.975c-11.436,0-6.8,15.107,0,15.107S47.626,41.975,36.189,41.975
					L36.189,41.975z"/>
			</g>
			<path fill-rule="evenodd" clip-rule="evenodd" fill="#5F5448" d="M31.192,64.077c-3.743-23.043,5.573-20.714,7.32-20.63
				C35.908,40.657,24.014,40.481,31.192,64.077z"/>
			<path fill-rule="evenodd" clip-rule="evenodd" fill="#5F5448" d="M38.514,43.431c1.895,0.935,3.063,2.497,3.469,4.893
				c0.407,2.397,0.704,2.053,1.532,0.282c0.83-1.77-1.202-9.404-7.133-9.404c-5.932,0-8.36,5.874-7.531,9.082
				c0.83,3.208,1.477,2.16,1.996-0.274C31.363,45.573,33.905,43.182,38.514,43.431z"/>
			<path fill-rule="evenodd" clip-rule="evenodd" fill="#5F5448" d="M41.548,61.872c3.327-11.314-1.913-18.385-3.078-18.468
				C40.715,42.839,46.014,49.875,41.548,61.872z"/>
		</g>
		<g>
			<path fill="#0092B2" d="M29.696,47.444c0-1.728,0.735-3.292,1.923-4.423c1.184-1.128,2.82-1.827,4.625-1.827
				c1.806,0,3.44,0.699,4.626,1.827c1.188,1.132,1.922,2.696,1.922,4.423h-0.442c0-1.603-0.681-3.053-1.784-4.104
				c-1.105-1.053-2.633-1.704-4.323-1.704c-1.688,0-3.217,0.651-4.322,1.704c-1.102,1.051-1.785,2.502-1.785,4.104H29.696z"/>
			<g>
				<path fill-rule="evenodd" clip-rule="evenodd" fill="#0092B2" d="M29.829,47.28L29.829,47.28c0.3,0,0.546,0.246,0.546,0.545
					v1.636c0,0.299-0.246,0.544-0.546,0.544l0,0c-0.299,0-0.545-0.246-0.545-0.544v-1.636C29.284,47.526,29.53,47.28,29.829,47.28z"
					/>
				<path fill-rule="evenodd" clip-rule="evenodd" fill="#0092B2" d="M42.66,47.28L42.66,47.28c0.299,0,0.545,0.246,0.545,0.545
					v1.636c0,0.299-0.246,0.544-0.545,0.544l0,0c-0.299,0-0.545-0.246-0.545-0.544v-1.636C42.115,47.526,42.361,47.28,42.66,47.28z"
					/>
			</g>
			<path fill="#0092B2" d="M30.05,50.005c0,0.916,0.556,1.961,1.455,2.754c0.811,0.715,1.894,1.219,3.097,1.236l-0.005,0.44
				c-1.318-0.019-2.502-0.568-3.384-1.348c-0.99-0.874-1.604-2.044-1.604-3.083H30.05z"/>
			<path fill-rule="evenodd" clip-rule="evenodd" fill="#0092B2" d="M34.759,54.824l-1.048-0.341
				c-0.459-0.149-0.34-0.736,0.143-0.716l1.107,0.047C35.754,53.846,35.553,55.041,34.759,54.824z"/>
		</g>
	</g>
</g>
<g>
	<g>
		<path fill="#FF0074" d="M70.09,89.188c0-7.582,3.224-14.447,8.437-19.414c5.2-4.955,12.378-8.019,20.301-8.019
			c7.925,0,15.103,3.064,20.302,8.019c5.213,4.967,8.437,11.832,8.437,19.414h-1.939c0-7.034-2.99-13.402-7.83-18.012
			c-4.851-4.623-11.557-7.483-18.969-7.483c-7.41,0-14.118,2.86-18.968,7.483c-4.836,4.61-7.829,10.978-7.829,18.012H70.09z"/>
		<g>
			<path fill-rule="evenodd" clip-rule="evenodd" fill="#FF0074" d="M70.674,88.468L70.674,88.468c1.315,0,2.392,1.077,2.392,2.392
				v7.175c0,1.316-1.076,2.394-2.392,2.394l0,0c-1.314,0-2.392-1.077-2.392-2.394v-7.175C68.283,89.545,69.36,88.468,70.674,88.468z
				"/>
			<path fill-rule="evenodd" clip-rule="evenodd" fill="#FF0074" d="M126.982,88.468L126.982,88.468
				c1.316,0,2.394,1.077,2.394,2.392v7.175c0,1.316-1.077,2.394-2.394,2.394l0,0c-1.315,0-2.392-1.077-2.392-2.394v-7.175
				C124.591,89.545,125.667,88.468,126.982,88.468z"/>
		</g>
		<path fill="#FF0074" d="M71.644,100.428c0,4.023,2.441,8.605,6.382,12.083c3.554,3.141,8.313,5.354,13.595,5.432l-0.023,1.932
			c-5.784-0.086-10.982-2.498-14.852-5.914c-4.348-3.838-7.04-8.973-7.04-13.533H71.644z"/>
		<path fill-rule="evenodd" clip-rule="evenodd" fill="#FF0074" d="M92.308,121.572l-4.6-1.496c-2.015-0.656-1.486-3.229,0.63-3.141
			l4.86,0.203C96.677,117.281,95.793,122.523,92.308,121.572z"/>
	</g>
</g>
</svg>
